<svg id="fd12a6c5-a869-4c04-9aba-c728f80b3007" data-name="图层 1" xmlns="http://www.w3.org/2000/svg" viewBox="0 0 50 50"><defs><style>.e8e564d1-f7e1-4553-9cfe-7d16b714be31{fill:#212529;}.a0c1a9af-20df-42da-a930-fea2f745afd5{fill:#e52e2e;}.e0ad952f-7181-4b74-aa21-2eb1bc03d0f6{fill:#8affff;}</style></defs><rect class="e8e564d1-f7e1-4553-9cfe-7d16b714be31" width="50" height="50"/><circle class="a0c1a9af-20df-42da-a930-fea2f745afd5" cx="25" cy="25" r="25"/><path class="e8e564d1-f7e1-4553-9cfe-7d16b714be31" d="M38.38,21.36a6,6,0,0,0-6-6H17a6,6,0,0,0-6,6v7.15a6,6,0,0,0,6,6H32.38a6,6,0,0,0,6-6Zm-9,4.11-6.89,3.41c-.27.14-1.18-.05-1.18-.36v-7c0-.31.92-.51,1.19-.35l6.59,3.58C29.35,24.92,29.64,25.32,29.36,25.47Z"/><rect class="e8e564d1-f7e1-4553-9cfe-7d16b714be31" width="50" height="50"/><circle class="e0ad952f-7181-4b74-aa21-2eb1bc03d0f6" cx="25" cy="25" r="25"/><path class="e8e564d1-f7e1-4553-9cfe-7d16b714be31" d="M14.52,20.34h4.84V35.9H14.52Zm2.42-7.73a2.81,2.81,0,1,1-2.81,2.81,2.8,2.8,0,0,1,2.81-2.81"/><path class="e8e564d1-f7e1-4553-9cfe-7d16b714be31" d="M22.39,20.34H27v2.13h.06A5.1,5.1,0,0,1,31.67,20c4.9,0,5.8,3.22,5.8,7.41V35.9H32.64V28.34c0-1.81,0-4.13-2.52-4.13s-2.9,2-2.9,4v7.7H22.39Z"/></svg>