<svg id="f5fdcfb7-7143-4cf0-ac59-1a802787e385" data-name="图层 1" xmlns="http://www.w3.org/2000/svg" viewBox="0 0 50 50"><defs><style>.bc5ddc08-cf3b-4c4b-b718-fca86f8ffd4f{fill:#212529;}.f0465cb8-0fd5-4f3f-b556-336e955dae57{fill:#1a77ff;}</style></defs><rect class="bc5ddc08-cf3b-4c4b-b718-fca86f8ffd4f" width="50" height="50"/><circle class="f0465cb8-0fd5-4f3f-b556-336e955dae57" cx="25" cy="25" r="25"/><path class="bc5ddc08-cf3b-4c4b-b718-fca86f8ffd4f" d="M38.81,16.43a11,11,0,0,1-2.75.79c.44-.07,1.09-.88,1.35-1.2a5.16,5.16,0,0,0,.92-1.67s0-.11,0-.14a.14.14,0,0,0-.15,0,14.07,14.07,0,0,1-3.27,1.25.22.22,0,0,1-.22-.06,2.64,2.64,0,0,0-.29-.29,5.61,5.61,0,0,0-1.58-1,5.32,5.32,0,0,0-2.43-.39,5.63,5.63,0,0,0-2.3.65,5.92,5.92,0,0,0-1.86,1.51,5.71,5.71,0,0,0-1.11,2.23,6,6,0,0,0-.06,2.35c0,.13,0,.14-.11.13-4.49-.67-8.22-2.28-11.24-5.72-.13-.15-.2-.15-.31,0-1.32,2-.68,5.17,1,6.73.22.21.45.42.69.61a5.62,5.62,0,0,1-2.16-.61c-.14-.08-.2,0-.21.11a3.58,3.58,0,0,0,0,.65A5.77,5.77,0,0,0,16.26,27a3.14,3.14,0,0,0,.72.22,6.41,6.41,0,0,1-2.12.07c-.16,0-.22,0-.16.19a6,6,0,0,0,4.47,3.74c.2,0,.4,0,.61.09,0,0,0,0,0,0-.5.77-2.24,1.34-3,1.62a10.89,10.89,0,0,1-4.63.59c-.25,0-.3,0-.37,0s0,.1.07.17c.32.21.64.39,1,.57a15.68,15.68,0,0,0,3.1,1.24c5.57,1.54,11.84.41,16-3.74,3.28-3.27,4.43-7.76,4.43-12.27,0-.17.21-.27.33-.36a10.92,10.92,0,0,0,2.18-2.27.68.68,0,0,0,.14-.43v0C38.92,16.36,38.92,16.38,38.81,16.43Z"/></svg>