<svg id="b77c72c6-d17a-433e-ab45-e0e200cf31f7" data-name="图层 1" xmlns="http://www.w3.org/2000/svg" viewBox="0 0 50 50"><defs><style>.b70e48bd-8f0b-4158-b8f0-136b0cdfb483{fill:#212529;}.bc3d5e32-92e2-4f0c-a73f-32bfbb693a02{fill:#1a77ff;}.bc85a78f-dd7f-4865-9b04-77c81404e11c{fill:#12b0ff;}</style></defs><rect class="b70e48bd-8f0b-4158-b8f0-136b0cdfb483" width="50" height="50"/><circle class="bc3d5e32-92e2-4f0c-a73f-32bfbb693a02" cx="25" cy="25" r="25"/><path class="b70e48bd-8f0b-4158-b8f0-136b0cdfb483" d="M38.81,16.43a11,11,0,0,1-2.75.79c.44-.07,1.09-.88,1.35-1.2a5.16,5.16,0,0,0,.92-1.67s0-.11,0-.14a.14.14,0,0,0-.15,0,14.07,14.07,0,0,1-3.27,1.25.22.22,0,0,1-.22-.06,2.64,2.64,0,0,0-.29-.29,5.61,5.61,0,0,0-1.58-1,5.32,5.32,0,0,0-2.43-.39,5.63,5.63,0,0,0-2.3.65,5.92,5.92,0,0,0-1.86,1.51,5.71,5.71,0,0,0-1.11,2.23,6,6,0,0,0-.06,2.35c0,.13,0,.14-.11.13-4.49-.67-8.22-2.28-11.24-5.72-.13-.15-.2-.15-.31,0-1.32,2-.68,5.17,1,6.73.22.21.45.42.69.61a5.62,5.62,0,0,1-2.16-.61c-.14-.08-.2,0-.21.11a3.58,3.58,0,0,0,0,.65A5.77,5.77,0,0,0,16.26,27a3.14,3.14,0,0,0,.72.22,6.41,6.41,0,0,1-2.12.07c-.16,0-.22,0-.16.19a6,6,0,0,0,4.47,3.74c.2,0,.4,0,.61.09,0,0,0,0,0,0-.5.77-2.24,1.34-3,1.62a10.89,10.89,0,0,1-4.63.59c-.25,0-.3,0-.37,0s0,.1.07.17c.32.21.64.39,1,.57a15.68,15.68,0,0,0,3.1,1.24c5.57,1.54,11.84.41,16-3.74,3.28-3.27,4.43-7.76,4.43-12.27,0-.17.21-.27.33-.36a10.92,10.92,0,0,0,2.18-2.27.68.68,0,0,0,.14-.43v0C38.92,16.36,38.92,16.38,38.81,16.43Z"/><path class="bc85a78f-dd7f-4865-9b04-77c81404e11c" d="M50,25A25,25,0,1,0,21.09,49.7V32.23H14.75V25h6.34V19.49c0-6.26,3.74-9.72,9.45-9.72a39,39,0,0,1,5.59.48v6.16H33c-3.11,0-4.07,1.92-4.07,3.9V25h6.93l-1.11,7.23H28.91V49.7A25,25,0,0,0,50,25Z"/><path class="b70e48bd-8f0b-4158-b8f0-136b0cdfb483" d="M34.73,32.23,35.84,25H28.91V20.31c0-2,1-3.9,4.07-3.9h3.15V10.25a39,39,0,0,0-5.59-.48c-5.71,0-9.45,3.46-9.45,9.72V25H14.75v7.23h6.34V49.7a25.63,25.63,0,0,0,7.82,0V32.23Z"/></svg>