<svg id="ac4368c5-08ae-44d5-960c-0896376c2dc7" data-name="图层 1" xmlns="http://www.w3.org/2000/svg" viewBox="0 0 50 50"><defs><style>.b7dc75d7-e033-4ab2-b076-f8d808583132{fill:#212529;}.acd17e2b-a163-409b-a55e-4b34134541aa{fill:#e52e2e;}</style></defs><rect class="b7dc75d7-e033-4ab2-b076-f8d808583132" width="50" height="50"/><circle class="acd17e2b-a163-409b-a55e-4b34134541aa" cx="25" cy="25" r="25"/><path class="b7dc75d7-e033-4ab2-b076-f8d808583132" d="M38.38,21.36a6,6,0,0,0-6-6H17a6,6,0,0,0-6,6v7.15a6,6,0,0,0,6,6H32.38a6,6,0,0,0,6-6Zm-9,4.11-6.89,3.41c-.27.14-1.18-.05-1.18-.36v-7c0-.31.92-.51,1.19-.35l6.59,3.58C29.35,24.92,29.64,25.32,29.36,25.47Z"/></svg>